PathFileType	4	(x/y/z)	S06_PSF_T04
DataRate	CameraRate	NumFrames	NumMarkers	Units	OrigDataRate	OrigDataStartFrame	OrigNumFrames
240	240	4	51	mm	240	103	411
Frame#	Time	Sternum			R.Acromium			L.Acromium			Top.Head			R.ASIS			L.ASIS			R.PSIS			L.PSIS			R.Great.Tro			L.Great.Tro			R.Iliac.Crest			L.Iliac.Crest			V.Sacral			R.Thigh.Upper.Post			R.Thigh.Lower.Ant			R.Thigh.Lower.Post			R.Thigh.Upper.Ant			R.Knee.Lat			R.Knee.Med			R.Shank.Upper.Post			R.Shank.Lower.Ant			R.Shank.Lower.Post			R.Shank.Upper.Ant			R.Ankle.Lat			R.Ankle.Med			R.Heel.Upper			R.Heel.Med			R.Heel.Lat			R.Toe.Lat			R.Toe.Med			R.Toe.Tip			L.Thigh.Upper.Post			L.Thigh.Lower.Ant			L.Thigh.Lower.Post			L.Thigh.Upper.Ant			L.Knee.Lat			L.Knee.Med			L.Shank.Upper.Post			L.Shank.Lower.Ant			L.Shank.Lower.Post			L.Shank.Upper.Ant			L.Ankle.Lat			L.Ankle.Med			L.Heel.Upper			L.Heel.Med			L.Heel.Lat			L.Toe.Lat			L.Toe.Med			L.Toe.Tip			Cervical.Spine			Back			
		X1	Y1	Z1	X2	Y2	Z2	X3	Y3	Z3	X4	Y4	Z4	X5	Y5	Z5	X6	Y6	Z6	X7	Y7	Z7	X8	Y8	Z8	X9	Y9	Z9	X10	Y10	Z10	X11	Y11	Z11	X12	Y12	Z12	X13	Y13	Z13	X14	Y14	Z14	X15	Y15	Z15	X16	Y16	Z16	X17	Y17	Z17	X18	Y18	Z18	X19	Y19	Z19	X20	Y20	Z20	X21	Y21	Z21	X22	Y22	Z22	X23	Y23	Z23	X24	Y24	Z24	X25	Y25	Z25	X26	Y26	Z26	X27	Y27	Z27	X28	Y28	Z28	X29	Y29	Z29	X30	Y30	Z30	X31	Y31	Z31	X32	Y32	Z32	X33	Y33	Z33	X34	Y34	Z34	X35	Y35	Z35	X36	Y36	Z36	X37	Y37	Z37	X38	Y38	Z38	X39	Y39	Z39	X40	Y40	Z40	X41	Y41	Z41	X42	Y42	Z42	X43	Y43	Z43	X44	Y44	Z44	X45	Y45	Z45	X46	Y46	Z46	X47	Y47	Z47	X48	Y48	Z48	X49	Y49	Z49	X50	Y50	Z50	X51	Y51	Z51	

103	0.425	-975.87	1297.3	337.17	-1103.7	1501.5	505.14	-1115.9	1504.6	154.86	-1053.4	1818.2	330.51	-1027.7	1063.2	457.6	NaN	NaN	NaN	NaN	NaN	NaN	-1228	1084.3	284.69	-1073.7	988.17	510.06	-1119.7	985.85	152.7	-1117.2	1136	490.61	-1092.5	1134.8	172.08	-1241.5	1047	327.31	-968.17	762.32	506.15	-886.66	709.21	468.61	-944.26	676.61	489.04	-908.05	797.91	479.98	-892.63	581.1	478.79	-890.4	582.19	349.98	-982.64	372.11	488.97	-939.43	294.94	472.82	-1004.9	297.77	478.42	-918.56	368.51	481.85	-1006.4	163.5	461.88	-991.92	165.81	376.31	-1077.4	129.43	414.43	-1072.9	97.269	385.07	-1074.9	99.047	450.52	-903.7	64.135	497.04	-872.99	62.602	378	-809.14	69.523	424.85	-1065.5	724.85	184.69	-1022.6	645.05	248.85	-1087.8	639.48	204.29	-1002.4	735.15	223.14	-1114.6	543.9	223.52	-1091.9	552.87	344.15	-1192.9	322.47	240.02	-1137.1	253.42	247.02	-1208.7	253.04	259.45	-1125.8	322.01	232.9	-1180.3	112.28	265.77	-1174.7	131.29	355.15	-1268	79.25	307.32	-1265.3	47.991	337	-1259.7	53.347	275.33	-1079.2	45.689	247.29	-1066.5	40.731	368.38	-989.7	52.092	317.52	-1160.9	1554.5	331.1	-1226.2	1284.6	328.53
104	0.42917	-970.85	1297.1	337.26	-1098.9	1501.4	505.14	-1110.6	1504.4	154.87	-1048.7	1818.2	330.66	-1022.5	1063.1	457.87	-1011.4	1061.1	206.99	NaN	NaN	NaN	-1223	1084.1	284.85	-1068.6	988	510.12	-1115.3	985.69	152.81	-1112.2	1135.8	490.67	-1087.5	1134.6	172.13	-1236.5	1046.8	327.48	-963.55	762.02	505.64	-882.08	708.86	468.06	-939.73	676.3	488.43	-903.39	797.57	479.53	-887.52	580.88	478.21	-885.6	582.03	349.53	-972.52	369.7	488.38	-927.27	293.7	472.13	-992.9	294.83	477.73	-908.48	367.73	481.07	-990.9	160.4	460.81	-976.26	163.28	375.32	-1061	124.68	413.27	-1055.2	92.496	384.07	-1057.6	94.233	449.34	-885.69	63.633	495.89	-854.96	63.166	376.88	-791.31	71.658	423.73	-1063	724.75	184.95	-1020.5	644.56	248.9	-1085.8	639.54	204.52	-999.73	734.54	223.23	-1113.4	544.02	223.63	-1090.6	552.8	344.35	-1192.4	322.7	240.23	-1136.7	253.54	247.13	-1208.4	253.3	259.68	-1125.4	322.09	233	-1180.2	112.43	265.87	-1174.5	131.37	355.4	-1267.9	79.331	307.45	-1265.2	48.03	337.11	-1259.6	53.481	275.44	-1079.2	45.683	247.33	-1066.6	40.689	368.41	-989.65	51.957	317.52	-1155.8	1554.3	331.05	-1221.2	1284.4	328.4
105	0.43333	-965.81	1296.8	337.35	-1094.1	1501.2	505.15	-1105.3	1504.2	154.88	-1044	1818	330.81	-1017.3	1062.9	458.13	-1007.1	1060.7	207.02	NaN	NaN	NaN	-1218.1	1083.9	285.01	-1063.6	987.77	510.19	-1110.9	985.49	152.92	-1107.2	1135.6	490.75	-1082.5	1134.2	172.18	-1231.6	1046.6	327.66	-959.12	761.62	505.15	-877.64	708.36	467.57	-935.37	675.87	487.85	-898.85	797.09	479.14	-882.59	580.55	477.66	-880.91	581.76	349.09	-962.48	367.3	487.76	-915.23	292.53	471.37	-980.96	291.95	476.99	-898.5	366.97	480.28	-975.44	157.44	459.66	-960.59	160.92	374.25	-1044.5	120.11	411.99	-1037.5	87.954	382.93	-1040.4	89.608	448.03	-867.77	63.343	494.69	-837.01	63.978	375.73	-773.6	74.023	422.63	-1060.5	724.65	185.21	-1018.4	644.05	248.91	-1083.9	639.59	204.74	-997.03	733.9	223.29	-1112.2	544.13	223.74	-1089.2	552.72	344.55	-1191.9	322.92	240.45	-1136.3	253.66	247.24	-1208	253.56	259.92	-1124.9	322.17	233.09	-1180.2	112.56	266	-1174.3	131.47	355.64	-1267.8	79.414	307.59	-1265.1	48.072	337.22	-1259.6	53.614	275.56	-1079.2	45.675	247.37	-1066.6	40.651	368.43	-989.6	51.806	317.53	-1150.7	1554.1	330.99	-1216.2	1284.3	328.29
106	0.4375	-960.76	1296.4	337.46	-1089.3	1500.9	505.16	-1099.9	1504	154.9	-1039.3	1817.9	330.95	-1012.2	1062.7	458.38	-1002.6	1060.3	207.07	NaN	NaN	NaN	-1213.1	1083.7	285.18	-1058.6	987.47	510.25	-1106.4	985.26	153.04	-1102.2	1135.3	490.83	-1077.5	1133.9	172.23	-1226.5	1046.4	327.83	-954.9	761.11	504.7	-873.36	707.73	467.16	-931.19	675.33	487.3	-894.43	796.47	478.8	-877.83	580.11	477.14	-876.34	581.37	348.67	-952.51	364.91	487.1	-903.32	291.43	470.55	-969.06	289.13	476.2	-888.64	366.23	479.47	-960	154.65	458.43	-944.92	158.74	373.13	-1028	115.72	410.6	-1019.8	83.656	381.65	-1023.1	85.183	446.6	-849.94	63.271	493.44	-819.16	65.048	374.56	-756.05	76.626	421.53	-1057.9	724.52	185.44	-1016.3	643.53	248.9	-1082	639.61	204.94	-994.33	733.24	223.32	-1111	544.23	223.84	-1087.7	552.62	344.73	-1191.4	323.15	240.66	-1135.9	253.78	247.33	-1207.7	253.82	260.15	-1124.4	322.25	233.18	-1180.3	112.66	266.14	-1174.1	131.57	355.86	-1267.7	79.5	307.73	-1265	48.118	337.33	-1259.5	53.746	275.68	-1079.2	45.666	247.41	-1066.7	40.617	368.45	-989.55	51.641	317.55	-1145.6	1553.8	330.93	-1211.1	1284	328.19
